<?xml version="1.0" encoding="utf-8"?>
<!-- Generator: Adobe Illustrator 27.4.1, SVG Export Plug-In . SVG Version: 6.00 Build 0)  -->
<svg version="1.1" xmlns="http://www.w3.org/2000/svg" xmlns:xlink="http://www.w3.org/1999/xlink" x="0px" y="0px"
	 viewBox="0 0 1000 1000" style="enable-background:new 0 0 1000 1000;" xml:space="preserve">
<style type="text/css">
	.st0{fill:#FF1082;}
	.st1{fill:#FF8B00;}
	.st2{fill:#F9FF00;}
	.st3{fill:#0092FF;}
	.st4{fill:url(#SVGID_1_);}
	.st5{fill:url(#SVGID_00000039826194866197011150000005830609855299465114_);}
	.st6{fill:url(#SVGID_00000096739641484815520690000002711604767015346586_);}
	.st7{display:none;}
	.st8{display:inline;fill:none;stroke:#000000;stroke-miterlimit:10;}
	.st9{fill:url(#SVGID_00000168833942956999900800000017920049673042963094_);}
	.st10{fill:url(#SVGID_00000128472669747690196750000001374800525163608452_);}
	.st11{fill:url(#SVGID_00000163770959894325021860000003136626918441582976_);}
	.st12{fill:url(#SVGID_00000176028856711322300060000006186515972358568865_);}
	.st13{fill:url(#SVGID_00000096054934072638502590000015487350797339137180_);}
	.st14{fill:url(#SVGID_00000119831472895658476800000003379984484415933843_);}
	.st15{fill:url(#SVGID_00000146457806299588374100000010953325367580183984_);}
	.st16{fill:url(#SVGID_00000053527216405967256340000014334180448642053514_);}
	.st17{fill:url(#SVGID_00000049906715154641015490000012573896474665814191_);}
	.st18{fill:url(#SVGID_00000152968205607228729580000014633750256060140425_);}
	.st19{fill:none;stroke:#000000;stroke-miterlimit:10;}
	.st20{display:none;fill:none;stroke:#000000;stroke-miterlimit:10;}
	.st21{fill:url(#SVGID_00000007388567593876517600000001168840113972073865_);}
	.st22{display:inline;fill:none;stroke:#0C0E00;stroke-miterlimit:10;}
	.st23{fill:url(#SVGID_00000010281273436491785490000008799526648285282974_);}
	.st24{fill:url(#SVGID_00000099634912685998550100000008465426584353432205_);}
</style>
<g id="로고4">
</g>
<g id="로고1_패스" class="st7">
</g>
<g id="로고1">
</g>
<g id="로고2">
</g>
<g id="로고3" class="st7">
	<ellipse transform="matrix(0.1383 -0.9904 0.9904 0.1383 -44.171 957.2332)" class="st8" cx="528" cy="504" rx="19.5" ry="32.5"/>
	
		<ellipse transform="matrix(0.5261 -0.8504 0.8504 0.5261 -149.5972 686.335)" class="st8" cx="541" cy="477.39" rx="20.6" ry="39.07"/>
	
		<ellipse transform="matrix(0.6913 -0.7226 0.7226 0.6913 -154.1388 538.3819)" class="st8" cx="553.02" cy="449.59" rx="24.37" ry="40.6"/>
	<circle class="st8" cx="589" cy="498" r="183.5"/>
	<circle class="st8" cx="412" cy="501" r="182.5"/>
	<circle class="st8" cx="599" cy="500" r="170.5"/>
	<circle class="st8" cx="606.5" cy="499.5" r="162"/>
	<circle class="st8" cx="392.5" cy="499.5" r="162"/>
	<circle class="st8" cx="618.5" cy="500.5" r="150"/>
	<circle class="st8" cx="381" cy="500" r="150.5"/>
	<circle class="st8" cx="400" cy="499" r="171.5"/>
	<ellipse class="st22" cx="477.5" cy="431.5" rx="55" ry="56"/>
	<ellipse class="st22" cx="507.5" cy="443.5" rx="86" ry="89"/>
	<ellipse class="st22" cx="495.83" cy="438.5" rx="75.33" ry="77"/>
	<ellipse class="st22" cx="488" cy="435.5" rx="66.5" ry="68"/>
	<ellipse class="st22" cx="443" cy="476" rx="36.5" ry="42.5"/>
	<circle class="st22" cx="436.5" cy="486.5" r="31"/>
	<ellipse class="st22" cx="431" cy="502" rx="25.5" ry="28.5"/>
	<ellipse class="st22" cx="428.14" cy="519" rx="21.64" ry="21.5"/>
	<ellipse class="st22" cx="445.36" cy="553" rx="28.86" ry="25.5"/>
	
		<ellipse transform="matrix(0.6337 -0.7736 0.7736 0.6337 -269.8191 570.8956)" class="st22" cx="467.9" cy="570.35" rx="25.98" ry="81.14"/>
	
		<ellipse transform="matrix(0.3401 -0.9404 0.9404 0.3401 -153.2074 884.6897)" class="st22" cx="553.75" cy="551.51" rx="25.83" ry="29.37"/>
	<line class="st8" x1="380.5" y1="433.5" x2="624.5" y2="433.5"/>
	<line class="st8" x1="382.5" y1="578.5" x2="624.5" y2="578.5"/>
</g>
<g id="로고3-">
	<g>
		<linearGradient id="SVGID_1_" gradientUnits="userSpaceOnUse" x1="321.3149" y1="500" x2="680.4755" y2="500">
			<stop  offset="0.0528" style="stop-color:#FF94E5"/>
			<stop  offset="0.4169" style="stop-color:#C07F7B"/>
			<stop  offset="0.7411" style="stop-color:#E5B97E"/>
			<stop  offset="1" style="stop-color:#FDE273"/>
		</linearGradient>
		<path class="st4" d="M679.61,446.27c-0.98-15.99-2.36-26.42-5.73-38.23c-4.91-17.14-10.59-25.13-13.38-28.67
			c-7.78-9.87-20.52-20.09-24.85-17.2c-3.29,2.19,1.42,10.35,0,21.03c-3.05,23.03-12.19,43.98-22.94,64.99
			c-6.13,11.98-18.9,26.55-36.24,41.98c-11.32-6.05-21.27-13.31-26.56-17.35c5.24-4.11,9.93-7.8,15.01-13.16
			c3.34-3.52,6.15-7.62,15.29-21.03c9-13.19,13.5-19.79,17.2-28.67c5.56-13.34,7.11-24.86,7.65-30.58c0.71-7.65,0.46-14.2,0-19.12
			c-2.44,0.3-5.74,0.85-9.56,1.91c-3.6,1-13.91,4.2-22.94,11.47c-6.92,5.57-6.29,8.06-22.94,32.5c-4.66,6.83-7.04,10.31-9.56,13.38
			c-8.27,10.06-16.82,16.81-22.94,21.03l-1.2,1.03c-35.76-34.66-40.31-41.7-58.05-54.55c-17.34-12.56-30.99-22.2-51.61-24.85
			c-7.95-1.02-25.05-2.7-43.97,5.73c-21.53,9.6-28.55,24.97-32.5,32.5c-5.79,11.03-6.66,23.23-7.65,30.58
			c-1.27,9.54-0.96,17.22,0,15.29c8.94-17.92,20.45-38.88,51.61-42.05c9.62-0.98,17.58,0.69,28.67,3.82
			c16.73,4.73,27.97,12.48,40.14,21.03c4.27,3,7.45,5.44,34.41,28.67c23.91,20.61,26.63,23.19,34.41,28.67
			c11.53,8.12,20.55,14.38,34.41,19.12c14.93,5.11,27.34,5.67,32.5,5.73c12.56,0.17,21.46-2.04,28.67-3.82
			c7.06-1.75,12.24-3.69,17.2-7.65c2.62-2.08,6.16-5.08,5.73-5.73c3.94-2.1,4.68-4.07,5.73-3.82c3.39,0.8,2.84,21.41-1.91,47.79
			c-7.22,40.04-11.13,61.78-26.76,84.11c-4.69,6.7-9.54,12.18-7.65,15.29c3.33,5.48,26.02,1.13,42.05-11.47
			c10.38-8.16,15.34-17.71,21.03-28.67c1.95-3.76,8.86-17.52,13.38-40.14c2.38-11.9,2.89-22.75,3.82-43.97
			C681.22,476.46,680.19,455.59,679.61,446.27z"/>
		
			<linearGradient id="SVGID_00000051352096012721869300000011279654622625381545_" gradientUnits="userSpaceOnUse" x1="319.5246" y1="537.0602" x2="601.9308" y2="537.0602">
			<stop  offset="0.0528" style="stop-color:#6194E5"/>
			<stop  offset="0.4169" style="stop-color:#C07F7B"/>
			<stop  offset="0.7411" style="stop-color:#FF743F"/>
			<stop  offset="1" style="stop-color:#E2E23B"/>
		</linearGradient>
		<path style="fill:url(#SVGID_00000051352096012721869300000011279654622625381545_);" d="M320.25,507.44
			c0.33,1.87,1.42,10.27,1.91,15.29c2.99,30.5,1.22,26,5.73,45.88c3.78,16.61,5.66,24.92,11.47,34.41
			c7.55,12.34,16.55,19.16,19.12,21.03c4.72,3.44,13.16,8.67,24.85,11.47c6.89,1.65,12.87,1.97,17.2,1.91
			c-9.1-17.33-15.14-32.58-19.12-43.97c0,0-17.11-49-17.2-89.84c-0.03-13.03,0-13.38,0-13.38c0.41-5.11,1.01-6.61,0-7.65
			c13.91-1.58,24.75,3.15,33.3,7.13c-0.28,0.16-0.56,0.32-0.8,0.52c-1.49,1.15-2.88,3.42,0,24.85c2.11,15.71,4.4,32.12,11.47,55.43
			c4.2,13.85,8.5,24.87,11.47,32.5c6.17,15.83,5.93,22.32,9.56,22.94c6.55,1.12,15.3-16.76,19.12-28.67
			c2.22-6.94,5.84-17.56,3.82-30.58c-1.16-7.53-2.97-8.12-5.73-19.12c-3.77-15.01-1.75-19.27-3.82-26.76
			c-0.09-0.32-0.2-0.63-0.3-0.95c4.13,2.64,8.43,5.32,13.68,8.59c12.16,7.58,18.33,11.41,22.94,13.38
			c13.23,5.65,24.62,6.99,30.58,7.65c10.21,1.12,17.81,0.61,26.76,0c5.57-0.38,11.06-0.78,17.16-1.8
			c-1.35,3.66-2.93,8.83-3.78,15.18c-1.71,12.7,0.55,22.48,1.91,28.67c2.18,9.87,4.6,20.23,13.38,28.67
			c2.89,2.78,5.69,4.61,7.65,5.73c1.88-4.5,4.57-11.09,7.65-19.12c11.94-31.19,16.13-48.86,17.2-53.52
			c3.26-14.16,5.79-30.02,3.82-30.58c-0.15-0.04-0.31,0.04-0.48,0.19c-4.66,1.82-10.97,3.94-18.63,5.55
			c-17.59,3.69-31.62,2.44-36.32,1.91c-3.87-0.43-19.28-2.34-38.23-11.47c-4.43-2.14-11.04-5.62-51.61-38.23
			c-11.77-9.46-18.89-15.33-30.58-22.94c-14.86-9.66-23.59-12.29-30.58-15.29c-13.38-5.73-20.38-5.84-24.85-5.73
			c-10.15,0.24-17.5,1.35-24.85,5.73c-10.19,6.08-14.91,16.1-15.65,17.4c-0.04,0.08-0.05,0.15,0.26-0.82l-9.49,17.09
			c-0.88,14.1-0.96,23.7,0.03,33.24"/>
	</g>
</g>
</svg>
