<?xml version="1.0" encoding="utf-8"?>
<!-- Generator: Adobe Illustrator 27.4.1, SVG Export Plug-In . SVG Version: 6.00 Build 0)  -->
<svg version="1.1" xmlns="http://www.w3.org/2000/svg" xmlns:xlink="http://www.w3.org/1999/xlink" x="0px" y="0px"
	 viewBox="0 0 1000 1000" style="enable-background:new 0 0 1000 1000;" xml:space="preserve">
<style type="text/css">
	.st0{fill:#FF1082;}
	.st1{fill:#FF8B00;}
	.st2{fill:#F9FF00;}
	.st3{fill:#0092FF;}
	.st4{fill:url(#SVGID_1_);}
	.st5{fill:url(#SVGID_00000069393630998271498940000011374405956850492060_);}
	.st6{fill:url(#SVGID_00000005981611797429584300000013614599531139995322_);}
	.st7{display:none;}
	.st8{display:inline;fill:none;stroke:#000000;stroke-miterlimit:10;}
	.st9{fill:url(#SVGID_00000141420546423618603270000008227550004595430825_);}
	.st10{fill:url(#SVGID_00000066505323506835237560000000381344966874087559_);}
	.st11{fill:url(#SVGID_00000183215948774910089010000012190522204644646042_);}
	.st12{fill:url(#SVGID_00000002382016413745858340000004896899429091176358_);}
	.st13{fill:url(#SVGID_00000111912060774292733360000003791000969718424707_);}
	.st14{fill:url(#SVGID_00000044178365162511392530000012019024856370502552_);}
	.st15{fill:url(#SVGID_00000021818471015155944780000007367937004678308532_);}
	.st16{fill:url(#SVGID_00000115514947470224088150000000716537435916960914_);}
	.st17{fill:url(#SVGID_00000134950378807726256670000016857559463048650117_);}
	.st18{fill:url(#SVGID_00000043453922684022686550000008713698856281018760_);}
	.st19{fill:none;stroke:#000000;stroke-miterlimit:10;}
	.st20{display:none;fill:none;stroke:#000000;stroke-miterlimit:10;}
	.st21{fill:url(#SVGID_00000006693852154409968150000011267191571830973090_);}
	.st22{display:inline;fill:none;stroke:#0C0E00;stroke-miterlimit:10;}
	.st23{fill:url(#SVGID_00000113317368088504663390000014934107851240902528_);}
	.st24{fill:url(#SVGID_00000052081225283693577760000002682916044349322663_);}
</style>
<g id="로고4">
	<g>
		<circle class="st0" cx="306.43" cy="346.12" r="18.34"/>
		<circle class="st0" cx="348.54" cy="382.8" r="18.34"/>
		<circle class="st1" cx="313.22" cy="442.57" r="18.34"/>
		<circle class="st2" cx="313.22" cy="507.77" r="18.34"/>
		<circle class="st2" cx="252.09" cy="475.17" r="18.34"/>
		<circle class="st3" cx="265.67" cy="544.45" r="18.34"/>
		<circle class="st1" cx="265.67" cy="405.89" r="18.34"/>
		<linearGradient id="SVGID_1_" gradientUnits="userSpaceOnUse" x1="348.7024" y1="463.8522" x2="761.5767" y2="463.8522">
			<stop  offset="0" style="stop-color:#FF5BB4"/>
			<stop  offset="0.2389" style="stop-color:#FFB2C1"/>
			<stop  offset="0.5137" style="stop-color:#7CAF90"/>
			<stop  offset="0.7666" style="stop-color:#42B4C3;stop-opacity:0.1"/>
			<stop  offset="1" style="stop-color:#99D1FF;stop-opacity:0"/>
		</linearGradient>
		<path class="st4" d="M757.42,380.08c-2.98-5.13-12.92-5.97-27.85-7.47c-28.26-2.84-42.39-4.26-61.13-1.36
			c-31.21,4.83-53.15,16.53-65.2,23.09c-22.67,12.35-37.69,25.68-51.62,38.04c-10.87,9.65-19.47,18.66-36.68,36.68
			c-28.05,29.38-34.32,38.52-51.62,47.54c-10.19,5.31-20.93,8.74-35.32,9.51c-1.57,0.08-26.46-0.48-38.04-25.81
			c-11.01-24.11-1.3-44.26,0-47.54c1.62-4.08,3.6-5.64,5.55-8.02c0.62-0.76,1.08-1.45,1.92-2.17c4.14-3.52,5.86-10.23,6.05-15.75
			c0.24-7.37-3.62-14.42-10.41-17.29c-9.1-3.84-18.89-0.47-23.48,6.54l0,0c-3.77,4.44-24.38,29.59-20.38,65.2
			c3.17,28.17,19.78,45.53,24.45,50.26c1.73,1.76,31.84,31.34,72,25.81c19.32-2.66,32.64-12.3,47.54-23.09
			c9.73-7.05,18.85-16.57,36.68-35.32c25.6-26.92,26.01-29.89,40.75-43.47c12.62-11.62,23.62-21.75,40.75-31.24
			c14.06-7.79,32.9-18.22,57.05-19.02c36.63-1.21,66.7,10.58,83.54,0.68C764.77,398.38,762.8,389.32,757.42,380.08z"/>
		
			<linearGradient id="SVGID_00000002368087722930747190000010082863673796039311_" gradientUnits="userSpaceOnUse" x1="326.1224" y1="523.5475" x2="766.25" y2="523.5475">
			<stop  offset="0" style="stop-color:#FFFF00"/>
			<stop  offset="0.2419" style="stop-color:#FFFE57"/>
			<stop  offset="0.5137" style="stop-color:#E1FF8E"/>
			<stop  offset="0.7666" style="stop-color:#E9E4CB;stop-opacity:0.1"/>
			<stop  offset="1" style="stop-color:#99D1FF;stop-opacity:0"/>
		</linearGradient>
		<path style="fill:url(#SVGID_00000002368087722930747190000010082863673796039311_);" d="M673.88,426.95
			c-49.04,5.57-84.36,42.24-95.46,55.22c-3.5,4.09-7.18,8.03-10.99,11.84l-58.56,58.59c-40.04,38.71-91.73,27.85-91.73,27.85
			c-31.24-1.36-60.48-29.32-60.48-29.32l-0.01,0.01c-3.24-2.89-7.5-4.66-12.18-4.66c-10.13,0-18.34,8.21-18.34,18.34
			c0,4.46,1.59,8.54,4.23,11.72l0,0c0.01,0.02,0.03,0.03,0.04,0.05c0.48,0.58,1.01,1.12,1.56,1.63c17.95,18.2,46.12,29.4,46.12,29.4
			c51.59,25.08,93.85,8.06,106.1,1.94c2.11-1.05,4.26-2.03,6.48-2.83c27.77-9.95,75.9-65.68,75.9-65.68
			c28.69-37.02,66.85-62.06,88.25-74.26c12.41-7.07,26.27-11.35,40.53-12.14c37.01-2.04,57.32,13.05,57.32,13.05l13.58-20.38
			C720.06,420.16,675.24,426.95,673.88,426.95z"/>
		
			<linearGradient id="SVGID_00000147189182690916588550000005762836910440779171_" gradientUnits="userSpaceOnUse" x1="288.0867" y1="579.4983" x2="729.5225" y2="579.4983">
			<stop  offset="0" style="stop-color:#0092FF"/>
			<stop  offset="0.2419" style="stop-color:#5284E9"/>
			<stop  offset="0.5137" style="stop-color:#55E6FF"/>
			<stop  offset="0.7666" style="stop-color:#94E5FF;stop-opacity:0.1"/>
			<stop  offset="1" style="stop-color:#D9D1FF;stop-opacity:0"/>
		</linearGradient>
		<path style="fill:url(#SVGID_00000147189182690916588550000005762836910440779171_);" d="M711.28,489.44
			c-48.18-12.23-79.51,21.73-79.51,21.73l-85.58,84.22c0,0-16.3,24.45-88.3,42.11s-138.38-44.76-138.38-44.76l-0.01,0
			c-3.33-3.39-7.96-5.5-13.08-5.5c-5.74,0-10.86,2.64-14.22,6.77l0,0c0,0-0.05,0.06-0.13,0.18c-2.48,3.13-3.98,7.08-3.98,11.39
			c0,4.42,1.57,8.48,4.17,11.65c4.48,7.97,14.21,17.28,33.86,26.72c52.98,25.46,59.77,22.08,107.32,27.52
			c47.54,5.43,91.01-20.38,91.01-20.38s35.32-16.3,73.98-63.85c25.92-31.87,61.37-57.03,81.93-70.15
			c9.27-5.92,19.62-9.98,30.47-11.76C725.9,502.85,743.8,497.69,711.28,489.44z"/>
	</g>
</g>
<g id="로고1_패스" class="st7">
</g>
<g id="로고1">
</g>
<g id="로고2">
</g>
<g id="로고3" class="st7">
</g>
<g id="로고3-">
</g>
</svg>
